<svg class="icon-zzgNjO" width="18" height="18" fill="none" viewBox="0 0 14 14" style="min-width: 18px; min-height: 18px;" xmlns="http://www.w3.org/2000/svg"><g><path data-follow-fill="currentColor" d="M3.5 1.75h6.417v7.583l-4.084 4.084-.729-.73a.763.763 0 0 1-.167-.277.951.951 0 0 1-.066-.335v-.204l.641-2.538H1.75a1.12 1.12 0 0 1-.817-.35 1.12 1.12 0 0 1-.35-.816V7c0-.068.01-.141.03-.219.019-.078.038-.15.058-.218L2.42 2.45c.087-.194.233-.36.437-.496A1.14 1.14 0 0 1 3.5 1.75Zm5.25 1.167H3.5L1.75 7v1.167H7l-.788 3.208L8.75 8.838V2.917Zm1.167 6.416V8.167h1.75v-5.25h-1.75V1.75h2.916v7.583H9.917Z" fill="#637381"></path></g></svg>